<?xml version="1.0" encoding="UTF-8"?>
<!DOCTYPE svg PUBLIC "-//W3C//DTD SVG 1.1//EN" "http://www.w3.org/Graphics/SVG/1.1/DTD/svg11.dtd">
<svg xmlns="http://www.w3.org/2000/svg" version="1.1" width="2048px" height="2048px" style="shape-rendering:geometricPrecision; text-rendering:geometricPrecision; image-rendering:optimizeQuality; fill-rule:evenodd; clip-rule:evenodd" xmlns:xlink="http://www.w3.org/1999/xlink">
<g><path style="opacity:0.998" fill="#387eb8" d="M 1018.5,237.5 C 1081.11,236.94 1143.11,242.773 1204.5,255C 1250.65,264.151 1293.32,281.485 1332.5,307C 1359.63,325.795 1379.8,350.295 1393,380.5C 1395.78,387.964 1397.78,395.63 1399,403.5C 1401.2,547.167 1401.54,690.834 1400,834.5C 1396.57,882.189 1377.07,921.689 1341.5,953C 1313.93,974.418 1282.6,986.418 1247.5,989C 1096.49,989.026 945.489,989.693 794.5,991C 725.621,998.179 669.788,1028.68 627,1082.5C 599.607,1120.34 584.273,1162.67 581,1209.5C 580.5,1272.83 580.333,1336.17 580.5,1399.5C 521.499,1399.67 462.499,1399.5 403.5,1399C 370.963,1392.32 343.796,1376.48 322,1351.5C 292.557,1315.27 272.224,1274.27 261,1228.5C 249.452,1183.88 242.452,1138.54 240,1092.5C 234.88,1015.4 238.547,938.735 251,862.5C 258.704,817.054 273.37,774.054 295,733.5C 313.66,699.173 340.494,673.34 375.5,656C 384.484,652.117 393.817,649.45 403.5,648C 610.166,647.5 816.833,647.333 1023.5,647.5C 1023.5,625.167 1023.5,602.833 1023.5,580.5C 898.167,580.5 772.833,580.5 647.5,580.5C 647.023,519.468 647.523,458.468 649,397.5C 656.69,367.486 672.19,342.32 695.5,322C 730.543,293.311 770.21,273.311 814.5,262C 881.604,245.23 949.604,237.064 1018.5,237.5 Z"/></g>
<g><path style="opacity:1" fill="#fefefe" d="M 810.5,340.5 C 841.65,338.985 864.817,351.651 880,378.5C 892.688,409.729 887.188,437.229 863.5,461C 834.926,482.126 805.926,482.792 776.5,463C 753.903,443.287 746.069,418.787 753,389.5C 762.873,362.118 782.04,345.784 810.5,340.5 Z"/></g>
<g><path style="opacity:0.998" fill="#ffc331" d="M 1466.5,647.5 C 1525.5,647.333 1584.5,647.5 1643.5,648C 1676.03,654.681 1703.2,670.514 1725,695.5C 1754.58,731.67 1774.92,772.67 1786,818.5C 1796.34,858.559 1803.01,899.226 1806,940.5C 1812.34,1022.24 1809.01,1103.57 1796,1184.5C 1788.3,1229.95 1773.63,1272.95 1752,1313.5C 1733.34,1347.83 1706.51,1373.66 1671.5,1391C 1662.51,1394.89 1653.18,1397.55 1643.5,1399C 1436.83,1399.5 1230.17,1399.67 1023.5,1399.5C 1023.5,1421.83 1023.5,1444.17 1023.5,1466.5C 1148.83,1466.5 1274.17,1466.5 1399.5,1466.5C 1399.67,1525.5 1399.5,1584.5 1399,1643.5C 1394.11,1668.94 1383.11,1691.28 1366,1710.5C 1337.06,1740.06 1302.9,1761.56 1263.5,1775C 1201.49,1795.39 1137.82,1806.39 1072.5,1808C 996.898,1811.95 921.898,1806.95 847.5,1793C 799.579,1783.92 755.246,1766.26 714.5,1740C 688.801,1722.42 669.301,1699.58 656,1671.5C 653.065,1664.36 650.732,1657.03 649,1649.5C 647.343,1504.53 647.009,1359.53 648,1214.5C 650.631,1159.98 673.798,1116.81 717.5,1085C 742.606,1069.41 769.939,1060.41 799.5,1058C 950.512,1057.98 1101.51,1057.31 1252.5,1056C 1342.26,1045.85 1406.76,1000.35 1446,919.5C 1457.38,893.33 1464.04,865.996 1466,837.5C 1466.5,774.168 1466.67,710.834 1466.5,647.5 Z"/></g>
<g><path style="opacity:1" fill="#fffefe" d="M 1218.5,1569.5 C 1254.83,1567.7 1279.83,1583.53 1293.5,1617C 1301.63,1649.96 1291.96,1676.3 1264.5,1696C 1232.83,1712.86 1204,1709.02 1178,1684.5C 1161.53,1664.82 1156.53,1642.48 1163,1617.5C 1172.97,1591.6 1191.47,1575.6 1218.5,1569.5 Z"/></g>
</svg>
